<svg id="Lager_1" data-name="Lager 1" xmlns="http://www.w3.org/2000/svg" viewBox="0 0 64 64"><defs><style>.cls-1{fill:none;}.cls-2{fill:#f997f9;}</style></defs><title>Rityta 1</title><path class="cls-1" d="M42,27.28a4.84,4.84,0,0,0,0-9.68,4.84,4.84,0,1,0,0,9.68Z"/><path class="cls-1" d="M22.1,27.28a4.84,4.84,0,1,0-4.86-4.81A4.9,4.9,0,0,0,22.1,27.28Z"/><path class="cls-1" d="M1.08,32A31,31,0,0,1,32,1a31.32,31.32,0,0,1,3.16.16A31.87,31.87,0,0,0,31.87,1,30.73,30.73,0,0,0,1,32,30.6,30.6,0,0,0,24.14,61.91,31,31,0,0,1,1.08,32Z"/><path class="cls-2" d="M62.9,32A30.84,30.84,0,0,0,38.17,1.62l-.3-.05-1.19-.21c-.43-.07-.87-.12-1.31-.17l-.18,0A31.32,31.32,0,0,0,32,1a31,31,0,0,0-7.89,60.9,31.76,31.76,0,0,0,7.76,1A30.78,30.78,0,0,0,62.9,32ZM42,17.6a4.84,4.84,0,1,1-4.88,4.82A4.93,4.93,0,0,1,42,17.6Zm-20,0a4.84,4.84,0,1,1-4.82,4.87A4.93,4.93,0,0,1,22.05,17.6Zm.35,31.59c-5.26-3.18-7.74-7.22-8-13.12l0-.64.64,0,1.47-.07L19,35.19l.64,0,0,.64c.17,4,1.73,6.57,5.4,9a12.54,12.54,0,0,0,7,2.1l.75,0c8-.42,11.64-5.86,11.76-11.07l0-.65.65,0,3.51.17.49,0,.64,0,0,.64c-.3,5.88-2.77,9.92-8,13.1a18.66,18.66,0,0,1-9.74,2.91A18.67,18.67,0,0,1,22.4,49.19Z"/></svg>