<?xml version="1.0" encoding="utf-8"?>
<!-- Generator: Adobe Illustrator 21.1.0, SVG Export Plug-In . SVG Version: 6.00 Build 0)  -->
<svg version="1.1" id="Lager_1" xmlns="http://www.w3.org/2000/svg" xmlns:xlink="http://www.w3.org/1999/xlink" x="0px" y="0px"
	 viewBox="0 0 1840 702" style="enable-background:new 0 0 1840 702;" xml:space="preserve">
<style type="text/css">
	.st0{fill:#FFFFFF;}
</style>
<title>Rityta 1</title>
<path class="st0" d="M68.4,167v103.5H29.6V34.6h38.8v103.8L156,34.6h48.5l-99.7,117.9l99.7,117.9H156L68.4,167z"/>
<path class="st0" d="M367.9,113.4v157h-36.7v-21.2c-4.9,7.9-12,14-21.1,18.5c-9.1,4.5-18.3,6.7-27.5,6.7c-11.9,0-22.8-2.2-32.7-6.6
	c-9.9-4.4-18.4-10.4-25.4-18c-7.1-7.6-12.6-16.4-16.5-26.3c-3.9-9.9-5.9-20.4-5.9-31.7c0-11,2-21.5,5.9-31.5
	c3.9-10,9.4-18.8,16.5-26.5c7.1-7.6,15.6-13.6,25.4-18c9.9-4.4,20.8-6.6,32.7-6.6c9.2,0,18.4,2.2,27.5,6.7
	c9.1,4.5,16.1,10.7,21.1,18.5v-21.2H367.9z M284.7,241.8c7,0,13.3-1.3,19-4c5.7-2.7,10.6-6.3,14.7-10.8c4-4.5,7.2-9.8,9.4-15.8
	c2.2-6.1,3.4-12.5,3.4-19.2c0-6.7-1.1-13.1-3.4-19.2c-2.2-6.1-5.4-11.3-9.4-15.8c-4-4.5-8.9-8.1-14.7-10.8s-12.1-4-19-4
	c-7,0-13.3,1.3-18.9,4c-5.6,2.7-10.4,6.3-14.5,10.8c-4,4.5-7.1,9.8-9.3,15.8c-2.1,6.1-3.2,12.5-3.2,19.2c0,6.7,1.1,13.1,3.2,19.2
	c2.1,6.1,5.2,11.3,9.3,15.8c4,4.5,8.9,8.1,14.5,10.8C271.4,240.5,277.7,241.8,284.7,241.8z"/>
<path class="st0" d="M500.1,270.4c-2.9,0.4-6.9,0.9-11.8,1.3c-4.9,0.4-10.1,0.7-15.5,0.7c-4.5,0-9.7-0.4-15.5-1.2
	c-5.8-0.8-11.4-3-16.7-6.6c-5.3-3.6-9.7-9.1-13.3-16.5c-3.6-7.4-5.4-17.7-5.4-31v-73.1h-26.6v-30.7h26.6V65.9h36.7v47.5h36.1v30.7
	h-36.1v64.5c0,6.7,0.5,12.1,1.5,16.1c1,4,2.5,7.1,4.5,9.2c2,2.1,4.4,3.5,7.2,4.2c2.8,0.7,6,1,9.6,1c2.9,0,6.3,0,10.1,0
	c3.8,0,6.6-0.3,8.4-1V270.4z"/>
<path class="st0" d="M631.1,147.5c-2.9-0.7-5.3-1.1-7.2-1.3c-1.9-0.2-4.3-0.3-7.2-0.3c-15.7,0-27.7,4.5-36.1,13.6
	c-8.3,9.1-12.5,23.5-12.5,43.3v67.7h-36.7v-157h36.7v25.3c1.8-3.6,4.3-7,7.6-10.3c3.3-3.3,7.1-6.2,11.5-8.8
	c4.4-2.6,9.1-4.6,14.2-6.1c5.1-1.5,10.2-2.2,15.3-2.2c5.8,0,10.7,0.8,14.5,2.4V147.5z"/>
<path class="st0" d="M650,56.1c0-7.6,2.6-14.1,7.9-19.4c5.3-5.3,11.6-7.9,19-7.9c7.6,0,14.1,2.6,19.4,7.9c5.3,5.3,7.9,11.7,7.9,19.4
	c0,7.4-2.6,13.8-7.9,19c-5.3,5.3-11.7,7.9-19.4,7.9c-7.4,0-13.8-2.6-19-7.9C652.6,69.9,650,63.5,650,56.1z M658.8,113.4h36.7v157
	h-36.7V113.4z"/>
<path class="st0" d="M725.7,113.4h36.7v21.9c4.9-8.5,11.8-15,20.6-19.4c8.8-4.4,19-6.6,30.7-6.6c11.5,0,21.1,1.9,28.8,5.7
	c7.8,3.8,13.9,9,18.4,15.5c3.8,5.8,6.5,12.4,7.9,19.5c1.5,7.2,2.2,16.2,2.2,27v93.3h-36.7v-81.2c0-6.7-0.6-13-1.7-18.9
	c-1.1-5.8-3-10.8-5.6-15c-2.6-4.2-6.1-7.5-10.4-9.9c-4.4-2.5-9.8-3.7-16.3-3.7c-12.8,0-22.3,4.5-28.5,13.6
	c-6.2,9.1-9.3,20.4-9.3,33.9v81.2h-36.7V113.4z"/>
<path class="st0" d="M27.9,429.9h38.8v157c0,6.7,1.1,13.1,3.2,19.2c2.1,6.1,5.2,11.3,9.3,15.8c4,4.5,8.9,8.1,14.5,10.8
	c5.6,2.7,11.9,4,18.9,4c7,0,13.3-1.3,19-4c5.7-2.7,10.6-6.3,14.7-10.8c4-4.5,7.2-9.8,9.4-15.8c2.2-6.1,3.4-12.5,3.4-19.2v-157h38.8
	v157c0,11.5-2,22.3-6.1,32.5c-4,10.2-9.8,19.2-17.2,27c-7.4,7.8-16.3,13.9-26.8,18.4c-10.4,4.5-22.2,6.7-35.2,6.7
	c-12.8,0-24.4-2.2-34.7-6.7c-10.3-4.5-19.2-10.6-26.6-18.4c-7.4-7.8-13.1-16.7-17.2-27c-4-10.2-6.1-21.1-6.1-32.5V429.9z"/>
<path class="st0" d="M360.5,644.6c-4.9,7.9-12,14-21.1,18.5c-9.1,4.5-18.3,6.7-27.5,6.7c-11.9,0-22.8-2.2-32.7-6.6
	c-9.9-4.4-18.4-10.4-25.4-18c-7.1-7.6-12.6-16.4-16.5-26.3c-3.9-9.9-5.9-20.4-5.9-31.7c0-11,2-21.5,5.9-31.5
	c3.9-10,9.4-18.8,16.5-26.5c7.1-7.6,15.6-13.6,25.4-18c9.9-4.4,20.8-6.6,32.7-6.6c9.2,0,18.4,2.2,27.5,6.7
	c9.1,4.5,16.1,10.7,21.1,18.5V429.9h36.7v235.9h-36.7V644.6z M314,637.2c7,0,13.3-1.3,19-4c5.7-2.7,10.6-6.3,14.7-10.8
	c4-4.5,7.2-9.8,9.4-15.8c2.2-6.1,3.4-12.5,3.4-19.2s-1.1-13.1-3.4-19.2c-2.2-6.1-5.4-11.3-9.4-15.8c-4-4.5-8.9-8.1-14.7-10.8
	c-5.7-2.7-12.1-4-19-4c-7,0-13.3,1.3-18.9,4c-5.6,2.7-10.4,6.3-14.5,10.8c-4,4.5-7.1,9.8-9.3,15.8c-2.1,6.1-3.2,12.5-3.2,19.2
	s1.1,13.1,3.2,19.2c2.1,6.1,5.2,11.3,9.3,15.8c4,4.5,8.9,8.1,14.5,10.8C300.8,635.8,307.1,637.2,314,637.2z"/>
<path class="st0" d="M559.7,644.6c-4.9,7.9-12,14-21.1,18.5c-9.1,4.5-18.3,6.7-27.5,6.7c-11.9,0-22.8-2.2-32.7-6.6
	c-9.9-4.4-18.4-10.4-25.4-18c-7.1-7.6-12.6-16.4-16.5-26.3c-3.9-9.9-5.9-20.4-5.9-31.7c0-11,2-21.5,5.9-31.5
	c3.9-10,9.4-18.8,16.5-26.5c7.1-7.6,15.6-13.6,25.4-18c9.9-4.4,20.8-6.6,32.7-6.6c9.2,0,18.4,2.2,27.5,6.7
	c9.1,4.5,16.1,10.7,21.1,18.5V429.9h36.7v235.9h-36.7V644.6z M513.2,637.2c7,0,13.3-1.3,19-4c5.7-2.7,10.6-6.3,14.7-10.8
	c4-4.5,7.2-9.8,9.4-15.8c2.2-6.1,3.4-12.5,3.4-19.2s-1.1-13.1-3.4-19.2c-2.2-6.1-5.4-11.3-9.4-15.8c-4-4.5-8.9-8.1-14.7-10.8
	c-5.7-2.7-12.1-4-19-4c-7,0-13.3,1.3-18.9,4c-5.6,2.7-10.4,6.3-14.5,10.8c-4,4.5-7.1,9.8-9.3,15.8c-2.1,6.1-3.2,12.5-3.2,19.2
	s1.1,13.1,3.2,19.2c2.1,6.1,5.2,11.3,9.3,15.8c4,4.5,8.9,8.1,14.5,10.8C500,635.8,506.3,637.2,513.2,637.2z"/>
<path class="st0" d="M717.1,577.2c5.4,2,10.7,4.2,15.8,6.4c5.2,2.2,9.8,5.1,13.8,8.4c4,3.4,7.2,7.4,9.6,12.1s3.5,10.7,3.5,17.9
	c0,8.1-1.6,15.2-4.9,21.2c-3.3,6.1-7.8,11.1-13.5,15c-5.7,3.9-12.4,6.9-20,8.8c-7.6,1.9-15.7,2.9-24.3,2.9c-8.5,0-16.6-1.2-24.3-3.7
	c-7.6-2.5-14.4-6.1-20.4-11c-6-4.8-10.7-10.8-14.2-17.9c-3.5-7.1-5.2-15.2-5.2-24.4h35.7c0,10.3,2.9,17.6,8.6,21.7
	c5.7,4.2,13,6.2,21.7,6.2c7.2,0,13.3-1.3,18.2-4c4.9-2.7,7.4-7.4,7.4-14.2c0-3.6-1-6.5-3-8.8c-2-2.2-5.1-4.3-9.1-6.2
	c-4-1.9-9.1-3.9-15.2-5.9c-6.1-2-13.3-4.6-21.6-7.8c-5.4-2-10.4-4.2-15-6.6c-4.6-2.4-8.6-5.1-12-8.3c-3.4-3.1-6-7.1-7.8-11.8
	c-1.8-4.7-2.7-10.4-2.7-17.2c0-7.4,1.6-13.9,4.7-19.5c3.1-5.6,7.4-10.4,12.8-14.3c5.4-3.9,11.6-6.8,18.7-8.8
	c7.1-1.9,14.7-2.9,22.7-2.9c8.3,0,16.1,1.3,23.4,4c7.3,2.7,13.6,6.4,19,11.1s9.7,10.3,12.8,16.8c3.1,6.5,4.7,13.6,4.7,21.2h-35.7
	c0-7.4-2-13.3-5.9-17.7c-3.9-4.4-10.4-6.6-19.4-6.6c-6.3,0-11.6,1.5-16,4.4c-4.4,2.9-6.6,7.2-6.6,12.8c0,3.4,0.9,6.1,2.7,8.3
	c1.8,2.1,4.5,4,8.1,5.7c3.6,1.7,8.1,3.5,13.5,5.4C703.6,572.2,709.9,574.5,717.1,577.2z"/>
<path class="st0" d="M880.5,665.8c-2.9,0.4-6.9,0.9-11.8,1.3c-4.9,0.4-10.1,0.7-15.5,0.7c-4.5,0-9.7-0.4-15.5-1.2
	c-5.8-0.8-11.4-3-16.7-6.6c-5.3-3.6-9.7-9.1-13.3-16.5c-3.6-7.4-5.4-17.7-5.4-31v-73.1h-26.6v-30.7h26.6v-47.5h36.7v47.5h36.1v30.7
	h-36.1v64.5c0,6.7,0.5,12.1,1.5,16.1c1,4,2.5,7.1,4.5,9.2c2,2.1,4.4,3.5,7.2,4.2c2.8,0.7,6,1,9.6,1c2.9,0,6.3,0,10.1,0
	c3.8,0,6.6-0.3,8.4-1V665.8z"/>
<path class="st0" d="M1011.6,542.8c-2.9-0.7-5.3-1.1-7.2-1.3c-1.9-0.2-4.3-0.3-7.2-0.3c-15.7,0-27.7,4.5-36.1,13.6
	c-8.3,9.1-12.5,23.5-12.5,43.3v67.7h-36.7v-157h36.7v25.3c1.8-3.6,4.3-7,7.6-10.3c3.3-3.3,7.1-6.2,11.5-8.8
	c4.4-2.6,9.1-4.6,14.2-6.1c5.1-1.5,10.2-2.2,15.3-2.2c5.8,0,10.7,0.8,14.5,2.4V542.8z"/>
<path class="st0" d="M1110.2,669.9c-12.6,0-23.9-2.2-34-6.6s-18.8-10.4-25.9-18c-7.2-7.6-12.8-16.4-16.7-26.3
	c-3.9-9.9-5.9-20.4-5.9-31.7c0-11,2-21.5,5.9-31.5c3.9-10,9.5-18.8,16.7-26.5c7.2-7.6,15.8-13.6,25.9-18c10.1-4.4,21.5-6.6,34-6.6
	c12.6,0,24,2.2,34.2,6.6c10.2,4.4,19,10.4,26.3,18c7.3,7.6,12.9,16.5,16.8,26.5c3.9,10,5.9,20.5,5.9,31.5c0,11.2-2,21.8-5.9,31.7
	c-3.9,9.9-9.6,18.6-16.8,26.3c-7.3,7.6-16.1,13.6-26.3,18C1134.2,667.7,1122.8,669.9,1110.2,669.9z M1071.8,485.9
	c-7.4,0-13.8-2.6-19-7.9c-5.3-5.3-7.9-11.6-7.9-19c0-7.6,2.6-14.1,7.9-19.4c5.3-5.3,11.6-7.9,19-7.9c7.6,0,14.1,2.6,19.4,7.9
	c5.3,5.3,7.9,11.7,7.9,19.4c0,7.4-2.6,13.8-7.9,19C1085.9,483.2,1079.5,485.9,1071.8,485.9z M1110.2,637.2c7,0,13.3-1.3,19-4
	c5.7-2.7,10.6-6.3,14.7-10.8c4-4.5,7.2-9.8,9.4-15.8c2.2-6.1,3.4-12.5,3.4-19.2s-1.1-13.1-3.4-19.2c-2.2-6.1-5.4-11.3-9.4-15.8
	c-4-4.5-8.9-8.1-14.7-10.8c-5.7-2.7-12.1-4-19-4c-7,0-13.3,1.3-18.9,4c-5.6,2.7-10.4,6.3-14.5,10.8c-4,4.5-7.1,9.8-9.3,15.8
	c-2.1,6.1-3.2,12.5-3.2,19.2s1.1,13.1,3.2,19.2c2.1,6.1,5.2,11.3,9.3,15.8c4,4.5,8.9,8.1,14.5,10.8
	C1097,635.8,1103.3,637.2,1110.2,637.2z M1122,458.9c0-7.6,2.6-14.1,7.9-19.4c5.3-5.3,11.6-7.9,19-7.9c7.6,0,14.1,2.6,19.4,7.9
	c5.3,5.3,7.9,11.7,7.9,19.4c0,7.4-2.6,13.8-7.9,19c-5.3,5.3-11.7,7.9-19.4,7.9c-7.4,0-13.8-2.6-19-7.9
	C1124.7,472.7,1122,466.3,1122,458.9z"/>
<path class="st0" d="M1425,665.8v-87.9c0-12.6-2.3-22.5-6.9-29.8c-4.6-7.3-12.1-11-22.4-11c-4.7,0-9,0.8-13,2.4
	c-3.9,1.6-7.4,4.3-10.4,8.1c-3,3.8-5.4,8.8-7.1,15c-1.7,6.2-2.5,14-2.5,23.4v79.9h-36.7v-88.3c0-12.6-2.2-22.5-6.6-29.7
	c-4.4-7.2-11.7-10.8-22.1-10.8c-4.7,0-9.1,0.8-13.1,2.4c-4,1.6-7.6,4.3-10.6,8.1c-3,3.8-5.4,8.8-7.2,15c-1.8,6.2-2.7,14-2.7,23.4
	v79.9h-36.7v-157h36.7v21.9c3.4-7.2,8.9-13.3,16.7-18.4c7.8-5.1,16.8-7.6,27.1-7.6c14.4,0,25.4,2.7,33,8.1
	c7.6,5.4,13.1,12,16.5,19.9c3.8-7.9,10-14.5,18.5-19.9c8.5-5.4,18.4-8.1,29.7-8.1c11.7,0,21.2,1.9,28.6,5.6
	c7.4,3.7,13.2,8.5,17.4,14.3c4.2,5.8,7,12.4,8.4,19.7c1.5,7.3,2.2,14.7,2.2,22.1v99.4H1425z"/>
<path class="st0" d="M1530.9,598.4c0.4,5.6,1.5,10.9,3,15.8c1.6,4.9,4,9.3,7.2,13c3.3,3.7,7.5,6.6,12.6,8.8
	c5.2,2.1,11.6,3.2,19.2,3.2c10.6,0,18.2-2,22.9-6.1c4.7-4,8.2-8.9,10.4-14.5h37.1c-1.1,6.7-3.5,13.2-7.2,19.4
	c-3.7,6.2-8.6,11.6-14.7,16.3s-13.1,8.5-21.2,11.3c-8.1,2.8-17.2,4.2-27.3,4.2c-13.3,0-24.8-2.1-34.5-6.4
	c-9.8-4.3-17.9-10.1-24.4-17.5c-6.5-7.4-11.4-16.2-14.7-26.3c-3.3-10.1-4.9-20.9-4.9-32.3c0-11.7,1.7-22.6,5.2-32.7
	c3.5-10.1,8.5-18.9,15-26.3c6.5-7.4,14.6-13.2,24.3-17.4c9.7-4.2,20.7-6.2,33-6.2c10.1,0,19.6,1.8,28.5,5.4
	c8.9,3.6,16.6,8.6,23.3,15c6.6,6.4,11.8,13.9,15.5,22.4c3.7,8.5,5.6,17.9,5.6,28c0,2.7-0.1,5.9-0.2,9.6c-0.1,3.7-0.6,8.1-1.5,13.3
	H1530.9z M1571,532.4c-11.5,0-21,3.3-28.6,9.8c-7.6,6.5-11.5,16.2-11.5,29h78.2c0-12.1-3.5-21.6-10.6-28.5
	C1591.3,535.8,1582.2,532.4,1571,532.4z"/>
<path class="st0" d="M1779.3,542.8c-2.9-0.7-5.3-1.1-7.2-1.3c-1.9-0.2-4.3-0.3-7.2-0.3c-15.7,0-27.7,4.5-36.1,13.6
	c-8.3,9.1-12.5,23.5-12.5,43.3v67.7h-36.7v-157h36.7v25.3c1.8-3.6,4.3-7,7.6-10.3c3.3-3.3,7.1-6.2,11.5-8.8
	c4.4-2.6,9.1-4.6,14.2-6.1c5.1-1.5,10.2-2.2,15.3-2.2c5.8,0,10.7,0.8,14.5,2.4V542.8z"/>
</svg>
