<?xml version="1.0" encoding="utf-8"?>
<!-- Generator: Adobe Illustrator 21.1.0, SVG Export Plug-In . SVG Version: 6.00 Build 0)  -->
<svg version="1.1" id="Lager_1" xmlns="http://www.w3.org/2000/svg" xmlns:xlink="http://www.w3.org/1999/xlink" x="0px" y="0px"
	 viewBox="0 0 736 1894" style="enable-background:new 0 0 736 1894;" xml:space="preserve">
<style type="text/css">
	.st0{fill:#FFFFFF;}
</style>
<title>Rityta 1</title>
<g>
	<path class="st0" d="M540.8,85H437.3V46.2h235.9V85H569.4l103.8,87.6v48.5l-117.9-99.7l-117.9,99.7v-48.5L540.8,85z"/>
	<path class="st0" d="M594.4,384.5h-157v-36.7h21.2c-7.9-4.9-14-12-18.5-21.1c-4.5-9.1-6.7-18.3-6.7-27.5c0-11.9,2.2-22.8,6.6-32.7
		c4.4-9.9,10.4-18.4,18-25.4c7.6-7.1,16.4-12.6,26.3-16.5c9.9-3.9,20.4-5.9,31.7-5.9c11,0,21.5,2,31.5,5.9
		c10,3.9,18.8,9.4,26.5,16.5c7.6,7.1,13.6,15.6,18,25.4c4.4,9.9,6.6,20.8,6.6,32.7c0,9.2-2.2,18.4-6.7,27.5
		c-4.5,9.1-10.7,16.1-18.5,21.1h21.2V384.5z M466,301.3c0,7,1.3,13.3,4,19c2.7,5.7,6.3,10.6,10.8,14.7c4.5,4,9.8,7.2,15.8,9.4
		c6.1,2.2,12.5,3.4,19.2,3.4c6.7,0,13.1-1.1,19.2-3.4c6.1-2.2,11.3-5.4,15.8-9.4c4.5-4,8.1-8.9,10.8-14.7s4-12.1,4-19
		c0-7-1.3-13.3-4-18.9c-2.7-5.6-6.3-10.4-10.8-14.5c-4.5-4-9.8-7.1-15.8-9.3c-6.1-2.1-12.5-3.2-19.2-3.2c-6.7,0-13.1,1.1-19.2,3.2
		c-6.1,2.1-11.3,5.2-15.8,9.3c-4.5,4-8.1,8.9-10.8,14.5C467.3,288,466,294.3,466,301.3z"/>
	<path class="st0" d="M437.3,516.7c-0.4-2.9-0.9-6.9-1.3-11.8c-0.4-4.9-0.7-10.1-0.7-15.5c0-4.5,0.4-9.7,1.2-15.5
		c0.8-5.8,3-11.4,6.6-16.7c3.6-5.3,9.1-9.7,16.5-13.3c7.4-3.6,17.7-5.4,31-5.4h73.1v-26.6h30.7v26.6h47.5v36.7h-47.5v36.1h-30.7
		v-36.1h-64.5c-6.7,0-12.1,0.5-16.1,1.5c-4,1-7.1,2.5-9.2,4.5c-2.1,2-3.5,4.4-4.2,7.2c-0.7,2.8-1,6-1,9.6c0,2.9,0,6.3,0,10.1
		c0,3.8,0.3,6.6,1,8.4H437.3z"/>
	<path class="st0" d="M560.3,647.7c0.7-2.9,1.1-5.3,1.3-7.2c0.2-1.9,0.3-4.3,0.3-7.2c0-15.7-4.5-27.7-13.6-36.1
		c-9.1-8.3-23.5-12.5-43.3-12.5h-67.7V548h157v36.7h-25.3c3.6,1.8,7,4.3,10.3,7.6c3.3,3.3,6.2,7.1,8.8,11.5
		c2.6,4.4,4.6,9.1,6.1,14.2c1.5,5.1,2.2,10.2,2.2,15.3c0,5.8-0.8,10.7-2.4,14.5H560.3z"/>
	<path class="st0" d="M651.6,666.6c7.6,0,14.1,2.6,19.4,7.9c5.3,5.3,7.9,11.6,7.9,19c0,7.6-2.6,14.1-7.9,19.4
		c-5.3,5.3-11.7,7.9-19.4,7.9c-7.4,0-13.8-2.6-19-7.9c-5.3-5.3-7.9-11.7-7.9-19.4c0-7.4,2.6-13.8,7.9-19
		C637.9,669.2,644.2,666.6,651.6,666.6z M594.4,675.4v36.7h-157v-36.7H594.4z"/>
	<path class="st0" d="M594.4,742.3V779h-21.9c8.5,4.9,15,11.8,19.4,20.6c4.4,8.8,6.6,19,6.6,30.7c0,11.5-1.9,21.1-5.7,28.8
		c-3.8,7.8-9,13.9-15.5,18.4c-5.8,3.8-12.4,6.5-19.5,7.9c-7.2,1.5-16.2,2.2-27,2.2h-93.3v-36.7h81.2c6.7,0,13-0.6,18.9-1.7
		c5.8-1.1,10.8-3,15-5.6c4.2-2.6,7.5-6.1,9.9-10.4c2.5-4.4,3.7-9.8,3.7-16.3c0-12.8-4.5-22.3-13.6-28.5c-9.1-6.2-20.4-9.3-33.9-9.3
		h-81.2v-36.7H594.4z"/>
	<path class="st0" d="M277.8,44.5v38.8h-157c-6.7,0-13.1,1.1-19.2,3.2c-6.1,2.1-11.3,5.2-15.8,9.3c-4.5,4-8.1,8.9-10.8,14.5
		c-2.7,5.6-4,11.9-4,18.9c0,7,1.3,13.3,4,19c2.7,5.7,6.3,10.6,10.8,14.7c4.5,4,9.8,7.2,15.8,9.4c6.1,2.2,12.5,3.4,19.2,3.4h157v38.8
		h-157c-11.5,0-22.3-2-32.5-6.1c-10.2-4-19.2-9.8-27-17.2c-7.8-7.4-13.9-16.3-18.4-26.8c-4.5-10.4-6.7-22.2-6.7-35.2
		c0-12.8,2.2-24.4,6.7-34.7c4.5-10.3,10.6-19.2,18.4-26.6c7.8-7.4,16.7-13.1,27-17.2c10.2-4,21.1-6.1,32.5-6.1H277.8z"/>
	<path class="st0" d="M63.2,377.1c-7.9-4.9-14-12-18.5-21.1c-4.5-9.1-6.7-18.3-6.7-27.5c0-11.9,2.2-22.8,6.6-32.7
		c4.4-9.9,10.4-18.4,18-25.4c7.6-7.1,16.4-12.6,26.3-16.5c9.9-3.9,20.4-5.9,31.7-5.9c11,0,21.5,2,31.5,5.9
		c10,3.9,18.8,9.4,26.5,16.5c7.6,7.1,13.6,15.6,18,25.4c4.4,9.9,6.6,20.8,6.6,32.7c0,9.2-2.2,18.4-6.7,27.5
		c-4.5,9.1-10.7,16.1-18.5,21.1h100.1v36.7H42v-36.7H63.2z M70.6,330.6c0,7,1.3,13.3,4,19c2.7,5.7,6.3,10.6,10.8,14.7
		c4.5,4,9.8,7.2,15.8,9.4c6.1,2.2,12.5,3.4,19.2,3.4s13.1-1.1,19.2-3.4c6.1-2.2,11.3-5.4,15.8-9.4c4.5-4,8.1-8.9,10.8-14.7
		c2.7-5.7,4-12.1,4-19c0-7-1.3-13.3-4-18.9c-2.7-5.6-6.3-10.4-10.8-14.5c-4.5-4-9.8-7.1-15.8-9.3c-6.1-2.1-12.5-3.2-19.2-3.2
		s-13.1,1.1-19.2,3.2c-6.1,2.1-11.3,5.2-15.8,9.3c-4.5,4-8.1,8.9-10.8,14.5C72,317.4,70.6,323.7,70.6,330.6z"/>
	<path class="st0" d="M63.2,576.3c-7.9-4.9-14-12-18.5-21.1c-4.5-9.1-6.7-18.3-6.7-27.5c0-11.9,2.2-22.8,6.6-32.7
		c4.4-9.9,10.4-18.4,18-25.4c7.6-7.1,16.4-12.6,26.3-16.5c9.9-3.9,20.4-5.9,31.7-5.9c11,0,21.5,2,31.5,5.9
		c10,3.9,18.8,9.4,26.5,16.5c7.6,7.1,13.6,15.6,18,25.4c4.4,9.9,6.6,20.8,6.6,32.7c0,9.2-2.2,18.4-6.7,27.5
		c-4.5,9.1-10.7,16.1-18.5,21.1h100.1v36.7H42v-36.7H63.2z M70.6,529.8c0,7,1.3,13.3,4,19c2.7,5.7,6.3,10.6,10.8,14.7
		c4.5,4,9.8,7.2,15.8,9.4c6.1,2.2,12.5,3.4,19.2,3.4s13.1-1.1,19.2-3.4c6.1-2.2,11.3-5.4,15.8-9.4c4.5-4,8.1-8.9,10.8-14.7
		c2.7-5.7,4-12.1,4-19c0-7-1.3-13.3-4-18.9c-2.7-5.6-6.3-10.4-10.8-14.5c-4.5-4-9.8-7.1-15.8-9.3c-6.1-2.1-12.5-3.2-19.2-3.2
		s-13.1,1.1-19.2,3.2c-6.1,2.1-11.3,5.2-15.8,9.3c-4.5,4-8.1,8.9-10.8,14.5C72,516.6,70.6,522.9,70.6,529.8z"/>
	<path class="st0" d="M130.6,733.7c-2,5.4-4.2,10.7-6.4,15.8c-2.2,5.2-5.1,9.8-8.4,13.8c-3.4,4-7.4,7.2-12.1,9.6s-10.7,3.5-17.9,3.5
		c-8.1,0-15.2-1.6-21.2-4.9c-6.1-3.3-11.1-7.8-15-13.5c-3.9-5.7-6.9-12.4-8.8-20c-1.9-7.6-2.9-15.7-2.9-24.3
		c0-8.5,1.2-16.6,3.7-24.3c2.5-7.6,6.1-14.4,11-20.4c4.8-6,10.8-10.7,17.9-14.2c7.1-3.5,15.2-5.2,24.4-5.2v35.7
		c-10.3,0-17.6,2.9-21.7,8.6c-4.2,5.7-6.2,13-6.2,21.7c0,7.2,1.3,13.3,4,18.2c2.7,4.9,7.4,7.4,14.2,7.4c3.6,0,6.5-1,8.8-3
		c2.2-2,4.3-5.1,6.2-9.1c1.9-4,3.9-9.1,5.9-15.2c2-6.1,4.6-13.3,7.8-21.6c2-5.4,4.2-10.4,6.6-15c2.4-4.6,5.1-8.6,8.3-12
		c3.1-3.4,7.1-6,11.8-7.8c4.7-1.8,10.4-2.7,17.2-2.7c7.4,0,13.9,1.6,19.5,4.7c5.6,3.1,10.4,7.4,14.3,12.8c3.9,5.4,6.8,11.6,8.8,18.7
		c1.9,7.1,2.9,14.7,2.9,22.7c0,8.3-1.3,16.1-4,23.4c-2.7,7.3-6.4,13.6-11.1,19s-10.3,9.7-16.8,12.8c-6.5,3.1-13.6,4.7-21.2,4.7
		v-35.7c7.4,0,13.3-2,17.7-5.9c4.4-3.9,6.6-10.4,6.6-19.4c0-6.3-1.5-11.6-4.4-16c-2.9-4.4-7.2-6.6-12.8-6.6c-3.4,0-6.1,0.9-8.3,2.7
		c-2.1,1.8-4,4.5-5.7,8.1c-1.7,3.6-3.5,8.1-5.4,13.5C135.6,720.2,133.3,726.5,130.6,733.7z"/>
	<path class="st0" d="M42,897.1c-0.4-2.9-0.9-6.9-1.3-11.8c-0.4-4.9-0.7-10.1-0.7-15.5c0-4.5,0.4-9.7,1.2-15.5
		c0.8-5.8,3-11.4,6.6-16.7c3.6-5.3,9.1-9.7,16.5-13.3c7.4-3.6,17.7-5.4,31-5.4h73.1v-26.6H199v26.6h47.5v36.7H199v36.1h-30.7v-36.1
		h-64.5c-6.7,0-12.1,0.5-16.1,1.5c-4,1-7.1,2.5-9.2,4.5c-2.1,2-3.5,4.4-4.2,7.2c-0.7,2.8-1,6-1,9.6c0,2.9,0,6.3,0,10.1
		c0,3.8,0.3,6.6,1,8.4H42z"/>
	<path class="st0" d="M165,1028.2c0.7-2.9,1.1-5.3,1.3-7.2c0.2-1.9,0.3-4.3,0.3-7.2c0-15.7-4.5-27.7-13.6-36.1
		c-9.1-8.3-23.5-12.5-43.3-12.5H42v-36.7h157v36.7h-25.3c3.6,1.8,7,4.3,10.3,7.6c3.3,3.3,6.2,7.1,8.8,11.5c2.6,4.4,4.6,9.1,6.1,14.2
		c1.5,5.1,2.2,10.2,2.2,15.3c0,5.8-0.8,10.7-2.4,14.5H165z"/>
	<path class="st0" d="M37.9,1126.8c0-12.6,2.2-23.9,6.6-34s10.4-18.8,18-25.9c7.6-7.2,16.4-12.8,26.3-16.7
		c9.9-3.9,20.4-5.9,31.7-5.9c11,0,21.5,2,31.5,5.9c10,3.9,18.8,9.5,26.5,16.7c7.6,7.2,13.6,15.8,18,25.9c4.4,10.1,6.6,21.5,6.6,34
		c0,12.6-2.2,24-6.6,34.2c-4.4,10.2-10.4,19-18,26.3c-7.6,7.3-16.5,12.9-26.5,16.8c-10,3.9-20.5,5.9-31.5,5.9
		c-11.2,0-21.8-2-31.7-5.9c-9.9-3.9-18.6-9.6-26.3-16.8c-7.6-7.3-13.6-16.1-18-26.3C40.1,1150.8,37.9,1139.4,37.9,1126.8z
		 M221.9,1088.4c0-7.4,2.6-13.8,7.9-19c5.3-5.3,11.6-7.9,19-7.9c7.6,0,14.1,2.6,19.4,7.9c5.3,5.3,7.9,11.6,7.9,19
		c0,7.6-2.6,14.1-7.9,19.4c-5.3,5.3-11.7,7.9-19.4,7.9c-7.4,0-13.8-2.6-19-7.9C224.5,1102.5,221.9,1096.1,221.9,1088.4z
		 M70.6,1126.8c0,7,1.3,13.3,4,19c2.7,5.7,6.3,10.6,10.8,14.7c4.5,4,9.8,7.2,15.8,9.4c6.1,2.2,12.5,3.4,19.2,3.4s13.1-1.1,19.2-3.4
		c6.1-2.2,11.3-5.4,15.8-9.4c4.5-4,8.1-8.9,10.8-14.7c2.7-5.7,4-12.1,4-19c0-7-1.3-13.3-4-18.9c-2.7-5.6-6.3-10.4-10.8-14.5
		c-4.5-4-9.8-7.1-15.8-9.3c-6.1-2.1-12.5-3.2-19.2-3.2s-13.1,1.1-19.2,3.2c-6.1,2.1-11.3,5.2-15.8,9.3c-4.5,4-8.1,8.9-10.8,14.5
		C72,1113.6,70.6,1119.9,70.6,1126.8z M248.9,1138.6c7.6,0,14.1,2.6,19.4,7.9c5.3,5.3,7.9,11.6,7.9,19c0,7.6-2.6,14.1-7.9,19.4
		c-5.3,5.3-11.7,7.9-19.4,7.9c-7.4,0-13.8-2.6-19-7.9c-5.3-5.3-7.9-11.7-7.9-19.4c0-7.4,2.6-13.8,7.9-19
		C235.1,1141.3,241.4,1138.6,248.9,1138.6z"/>
	<path class="st0" d="M42,1441.6h87.9c12.6,0,22.5-2.3,29.8-6.9c7.3-4.6,11-12.1,11-22.4c0-4.7-0.8-9-2.4-13
		c-1.6-3.9-4.3-7.4-8.1-10.4c-3.8-3-8.8-5.4-15-7.1c-6.2-1.7-14-2.5-23.4-2.5H42v-36.7h88.3c12.6,0,22.5-2.2,29.7-6.6
		c7.2-4.4,10.8-11.7,10.8-22.1c0-4.7-0.8-9.1-2.4-13.1c-1.6-4-4.3-7.6-8.1-10.6c-3.8-3-8.8-5.4-15-7.2c-6.2-1.8-14-2.7-23.4-2.7H42
		v-36.7h157v36.7h-21.9c7.2,3.4,13.3,8.9,18.4,16.7c5.1,7.8,7.6,16.8,7.6,27.1c0,14.4-2.7,25.4-8.1,33c-5.4,7.6-12,13.1-19.9,16.5
		c7.9,3.8,14.5,10,19.9,18.5c5.4,8.5,8.1,18.4,8.1,29.7c0,11.7-1.9,21.2-5.6,28.6c-3.7,7.4-8.5,13.2-14.3,17.4
		c-5.8,4.2-12.4,7-19.7,8.4c-7.3,1.5-14.7,2.2-22.1,2.2H42V1441.6z"/>
	<path class="st0" d="M109.4,1547.5c-5.6,0.4-10.9,1.5-15.8,3c-4.9,1.6-9.3,4-13,7.2c-3.7,3.3-6.6,7.5-8.8,12.6
		c-2.1,5.2-3.2,11.6-3.2,19.2c0,10.6,2,18.2,6.1,22.9c4,4.7,8.9,8.2,14.5,10.4v37.1c-6.7-1.1-13.2-3.5-19.4-7.2
		c-6.2-3.7-11.6-8.6-16.3-14.7s-8.5-13.1-11.3-21.2c-2.8-8.1-4.2-17.2-4.2-27.3c0-13.3,2.1-24.8,6.4-34.5
		c4.3-9.8,10.1-17.9,17.5-24.4c7.4-6.5,16.2-11.4,26.3-14.7c10.1-3.3,20.9-4.9,32.3-4.9c11.7,0,22.6,1.7,32.7,5.2
		c10.1,3.5,18.9,8.5,26.3,15c7.4,6.5,13.2,14.6,17.4,24.3c4.2,9.7,6.2,20.7,6.2,33c0,10.1-1.8,19.6-5.4,28.5
		c-3.6,8.9-8.6,16.6-15,23.3c-6.4,6.6-13.9,11.8-22.4,15.5c-8.5,3.7-17.9,5.6-28,5.6c-2.7,0-5.9-0.1-9.6-0.2
		c-3.7-0.1-8.1-0.6-13.3-1.5V1547.5z M175.4,1587.6c0-11.5-3.3-21-9.8-28.6c-6.5-7.6-16.2-11.5-29-11.5v78.2
		c12.1,0,21.6-3.5,28.5-10.6C172,1607.9,175.4,1598.8,175.4,1587.6z"/>
	<path class="st0" d="M165,1795.9c0.7-2.9,1.1-5.3,1.3-7.2c0.2-1.9,0.3-4.3,0.3-7.2c0-15.7-4.5-27.7-13.6-36.1
		c-9.1-8.3-23.5-12.5-43.3-12.5H42v-36.7h157v36.7h-25.3c3.6,1.8,7,4.3,10.3,7.6c3.3,3.3,6.2,7.1,8.8,11.5c2.6,4.4,4.6,9.1,6.1,14.2
		c1.5,5.1,2.2,10.2,2.2,15.3c0,5.8-0.8,10.7-2.4,14.5H165z"/>
</g>
</svg>
